<?xml version="1.0" encoding="UTF-8"?>
<!-- Generator: https://ezgif.com/png-to-svg -->
<svg version="1.1" xmlns="http://www.w3.org/2000/svg" width="190" height="191">
<path d="M0 0 C62.7 0 125.4 0 190 0 C190 63.03 190 126.06 190 191 C127.3 191 64.6 191 0 191 C0 127.97 0 64.94 0 0 Z M119 21 C115.7 21.99 112.4 22.98 109 24 C105.37 26.31 101.74 28.62 98 31 C94.53 35.45 94.53 35.45 91 40 C90.67 40.66 90.34 41.32 90 42 C88.02 39.03 86.04 36.06 84 33 C79.05 30.03 79.05 30.03 74 27 C70.7 26.01 67.4 25.02 64 24 C58.72 24 53.44 24 48 24 C44.37 25.32 40.74 26.64 37 28 C33.7 30.31 30.4 32.62 27 35 C25.35 36.65 23.7 38.3 22 40 C20.35 42.64 18.7 45.28 17 48 C16.01 50.48 16.01 50.48 15 53 C15 59.27 15 65.54 15 72 C16.32 74.97 17.64 77.94 19 81 C29.44 96.7 39.87 112.41 50.57 127.93 C52 130 53.42 132.07 54.85 134.14 C56.67 136.79 58.49 139.44 60.31 142.09 C62.16 144.78 64.01 147.47 65.85 150.16 C71.12 157.87 76.45 165.5 82 173 C84.31 173 86.62 173 89 173 C91.47 163.59 91.47 163.59 94 154 C94 153.01 94 152.02 94 151 C95.98 150.34 97.96 149.68 100 149 C103.47 148.5 103.47 148.5 107 148 C110.3 148 113.6 148 117 148 C119.64 145.69 122.28 143.38 125 141 C125.99 139.02 126.98 137.04 128 135 C128 131.7 128 128.4 128 125 C127.34 123.68 126.68 122.36 126 121 C127.32 120.34 128.64 119.68 130 119 C130.99 116.03 131.98 113.06 133 110 C133 107.36 133 104.72 133 102 C131.35 99.69 129.7 97.38 128 95 C128.66 94.34 129.32 93.68 130 93 C129.5 89.53 129.5 89.53 129 86 C126.69 83.03 124.38 80.06 122 77 C119.03 74.03 116.06 71.06 113 68 C112.34 67.67 111.68 67.34 111 67 C103.74 67 96.48 67 89 67 C86.03 66.01 83.06 65.02 80 64 C80.33 62.68 80.66 61.36 81 60 C81.8 59.71 82.6 59.42 83.42 59.12 C88.2 57.33 92.92 55.51 97.54 53.33 C100.37 51.91 103.19 50.47 106 49 C108.31 49 110.62 49 113 49 C115.15 49.75 117.29 50.5 119.44 51.25 C120.63 51.67 121.83 52.09 123.06 52.52 C127.44 54.17 131.72 56.1 136 58 C142.93 64.93 149.86 71.86 157 79 C157.66 79.99 158.32 80.98 159 82 C160.32 81.67 161.64 81.34 163 81 C164.32 78.69 165.64 76.38 167 74 C167.99 71.36 168.98 68.72 170 66 C170 61.71 170 57.42 170 53 C168.35 49.04 166.7 45.08 165 41 C162.69 38.36 160.38 35.72 158 33 C155.69 31.02 153.38 29.04 151 27 C147.04 25.35 143.08 23.7 139 22 C137.35 21.67 135.7 21.34 134 21 C129.05 21 124.1 21 119 21 Z M104 155 C100.53 157.97 100.53 157.97 97 161 C96.67 161.66 96.34 162.32 96 163 C96.33 165.97 96.66 168.94 97 172 C98.65 173.65 100.3 175.3 102 177 C102.66 177.33 103.32 177.66 104 178 C106.64 178 109.28 178 112 178 C114.97 175.53 114.97 175.53 118 173 C118.33 172.34 118.66 171.68 119 171 C119 168.03 119 165.06 119 162 C117.68 160.35 116.36 158.7 115 157 C114.01 156.34 113.02 155.68 112 155 C109.36 155 106.72 155 104 155 Z " fill="#D30E2B" transform="translate(0,0)"/>
<path d="M0 0 C4.95 0 9.9 0 15 0 C19.29 1.32 23.58 2.64 28 4 C30.97 5.98 33.94 7.96 37 10 C39.64 12.64 42.28 15.28 45 18 C45.81 19.77 46.63 21.54 47.44 23.31 C47.89 24.3 48.34 25.28 48.81 26.3 C49.2 27.19 49.59 28.08 50 29 C50.33 29.99 50.66 30.98 51 32 C51 36.29 51 40.58 51 45 C48.52 50.94 48.52 50.94 46 57 C45.01 58.32 44.02 59.64 43 61 C41.68 60.67 40.36 60.34 39 60 C38.59 59.52 38.19 59.04 37.77 58.55 C33.25 53.3 28.49 48.37 23.56 43.5 C22.83 42.77 22.1 42.05 21.35 41.3 C19.57 39.53 17.78 37.76 16 36 C14.62 35.51 14.62 35.51 13.22 35.01 C6.79 32.72 0.38 30.42 -6 28 C-8.31 28 -10.62 28 -13 28 C-13.54 28.26 -14.09 28.52 -14.65 28.79 C-17.14 29.99 -19.63 31.18 -22.12 32.38 C-22.98 32.79 -23.84 33.2 -24.72 33.62 C-27.14 34.78 -29.55 35.92 -32 37 C-33.99 37.71 -35.98 38.4 -38 39 C-38.33 40.32 -38.66 41.64 -39 43 C-36.03 43.99 -33.06 44.98 -30 46 C-22.74 46 -15.48 46 -8 46 C-5.36 48.31 -2.72 50.62 0 53 C1.7 54.78 3.38 56.59 5 58.44 C5.76 59.3 6.53 60.17 7.31 61.06 C7.87 61.7 8.43 62.34 9 63 C9.66 64.32 10.32 65.64 11 67 C11 68.65 11 70.3 11 72 C10.34 72.99 9.68 73.98 9 75 C10.65 76.98 12.3 78.96 14 81 C14 83.64 14 86.28 14 89 C13.01 91.97 12.02 94.94 11 98 C9.02 98.99 9.02 98.99 7 100 C7.66 101.32 8.32 102.64 9 104 C9 107.3 9 110.6 9 114 C7.35 116.64 5.7 119.28 4 122 C2.02 123.65 0.04 125.3 -2 127 C-6.95 127 -11.9 127 -17 127 C-18.98 127.99 -20.96 128.98 -23 130 C-23.66 130 -24.32 130 -25 130 C-25.11 130.58 -25.22 131.17 -25.33 131.77 C-26.65 138.58 -28.27 145.28 -30 152 C-32.31 152 -34.62 152 -37 152 C-42.83 144.16 -48.56 136.3 -53.93 128.13 C-56.31 124.54 -58.74 120.99 -61.19 117.44 C-61.66 116.76 -62.12 116.08 -62.61 115.38 C-64.54 112.57 -66.47 109.77 -68.41 106.96 C-79.81 90.44 -90.89 73.71 -102 57 C-102.66 55.02 -103.32 53.04 -104 51 C-104 44.73 -104 38.46 -104 32 C-102.02 28.04 -100.04 24.08 -98 20 C-96.35 18.35 -94.7 16.7 -93 15 C-90.03 12.69 -87.06 10.38 -84 8 C-81.03 6.68 -78.06 5.36 -75 4 C-73.68 3.67 -72.36 3.34 -71 3 C-65.72 3 -60.44 3 -55 3 C-51.04 4.32 -47.08 5.64 -43 7 C-40.03 8.98 -37.06 10.96 -34 13 C-32.35 15.64 -30.7 18.28 -29 21 C-27.02 18.03 -25.04 15.06 -23 12 C-19.37 9.36 -15.74 6.72 -12 4 C-9.69 3.01 -7.38 2.02 -5 1 C-2.53 0.5 -2.53 0.5 0 0 Z M0 6 C-4.95 8.48 -4.95 8.48 -10 11 C-12.97 13.64 -15.94 16.28 -19 19 C-19.99 20.32 -20.98 21.64 -22 23 C-21.67 23.66 -21.34 24.32 -21 25 C-18.36 23.68 -15.72 22.36 -13 21 C-10.36 21.33 -7.72 21.66 -5 22 C3.91 25.3 12.82 28.6 22 32 C29.31 39.81 29.31 39.81 31.6 42.26 C32.2 42.9 32.81 43.55 33.43 44.21 C34.34 45.19 34.34 45.19 35.28 46.19 C36.83 47.82 38.4 49.42 40 51 C40.66 51 41.32 51 42 51 C42.99 48.03 42.99 48.03 44 45 C44 41.04 44 37.08 44 33 C42.68 30.03 41.36 27.06 40 24 C38.02 21.03 36.04 18.06 34 15 C29.05 12.03 29.05 12.03 24 9 C18.06 7.52 18.06 7.52 12 6 C8.04 6 4.08 6 0 6 Z M-71 10 C-75.95 11.48 -75.95 11.48 -81 13 C-83.64 14.98 -86.28 16.96 -89 19 C-90.98 21.64 -92.96 24.28 -95 27 C-96.32 30.63 -97.64 34.26 -99 38 C-99 40.31 -99 42.62 -99 45 C-97.68 48.63 -96.36 52.26 -95 56 C-89.86 63.81 -84.65 71.56 -79.25 79.19 C-78.75 79.89 -78.25 80.6 -77.74 81.33 C-75.61 84.32 -73.49 87.31 -71.36 90.3 C-62.79 102.32 -54.68 114.58 -46.79 127.06 C-42.96 133.11 -38.99 139.06 -35 145 C-34.34 144.34 -33.68 143.68 -33 143 C-32.01 139.7 -31.02 136.4 -30 133 C-30 132.01 -30 131.02 -30 130 C-31.65 129.01 -33.3 128.02 -35 127 C-36.98 124.03 -38.96 121.06 -41 118 C-41.66 115.03 -42.32 112.06 -43 109 C-45.64 107.02 -48.28 105.04 -51 103 C-53.47 99.04 -53.47 99.04 -56 95 C-56.99 92.03 -57.98 89.06 -59 86 C-61.97 83.36 -64.94 80.72 -68 78 C-69.32 75.36 -70.64 72.72 -72 70 C-72.33 68.68 -72.66 67.36 -73 66 C-74.98 64.68 -76.96 63.36 -79 62 C-80.32 59.69 -81.64 57.38 -83 55 C-83 52.03 -83 49.06 -83 46 C-81.02 42.37 -79.04 38.74 -77 35 C-73.44 33.37 -69.88 31.75 -66.31 30.12 C-65.31 29.66 -64.3 29.2 -63.26 28.73 C-62.28 28.29 -61.31 27.84 -60.3 27.38 C-59.41 26.97 -58.51 26.57 -57.59 26.15 C-55.08 25.04 -52.55 24 -50 23 C-44.99 23.62 -39.99 24.27 -35 25 C-35.66 23.35 -36.32 21.7 -37 20 C-39.31 18.02 -41.62 16.04 -44 14 C-47.63 12.68 -51.26 11.36 -55 10 C-60.28 10 -65.56 10 -71 10 Z M-49 28 C-59.89 32.95 -59.89 32.95 -71 38 C-72.65 39.98 -74.3 41.96 -76 44 C-76.33 44.66 -76.66 45.32 -77 46 C-77 48.64 -77 51.28 -77 54 C-74.53 56.97 -74.53 56.97 -72 60 C-71.4 59.4 -70.8 58.8 -70.19 58.19 C-68.46 56.46 -66.73 54.73 -65 53 C-59.39 50.03 -53.78 47.06 -48 44 C-47.34 41.69 -46.68 39.38 -46 37 C-43.03 35.35 -40.06 33.7 -37 32 C-37.66 31.34 -38.32 30.68 -39 30 C-42.3 29.34 -45.6 28.68 -49 28 Z M-47 48 C-52.61 51.3 -58.22 54.6 -64 58 C-64.99 59.32 -65.98 60.64 -67 62 C-67 64.31 -67 66.62 -67 69 C-65.02 71.97 -65.02 71.97 -63 75 C-61.68 75.99 -60.36 76.98 -59 78 C-58.01 77.67 -57.02 77.34 -56 77 C-55.67 75.68 -55.34 74.36 -55 73 C-53.02 72.34 -51.04 71.68 -49 71 C-45.04 69.02 -41.08 67.04 -37 65 C-34.69 65 -32.38 65 -30 65 C-26.62 65.79 -23.25 66.58 -19.88 67.38 C-18.92 67.6 -17.97 67.82 -16.99 68.05 C-13.05 68.98 -9.18 69.94 -5.32 71.16 C-4.55 71.44 -3.79 71.72 -3 72 C-1.02 72 0.96 72 3 72 C3.33 70.35 3.66 68.7 4 67 C2.68 65.02 1.36 63.04 0 61 C-3.3 58.03 -6.6 55.06 -10 52 C-11.65 52.33 -13.3 52.66 -15 53 C-20.28 53 -25.56 53 -31 53 C-33.99 51.99 -36.99 50.98 -39.98 49.97 C-42.3 49.23 -44.64 48.59 -47 48 Z M-36 70 C-39.63 71.98 -43.26 73.96 -47 76 C-48.65 77.65 -50.3 79.3 -52 81 C-52 83.31 -52 85.62 -52 88 C-50.68 91.3 -49.36 94.6 -48 98 C-45.53 99.98 -45.53 99.98 -43 102 C-40.39 100.99 -37.85 99.93 -35.32 98.71 C-34.45 98.27 -33.58 97.83 -32.69 97.38 C-31.8 96.93 -30.92 96.48 -30.01 96.02 C-29.35 95.69 -28.68 95.35 -28 95 C-25.69 95 -23.38 95 -21 95 C-17.04 95.99 -13.08 96.98 -9 98 C-6.69 98 -4.38 98 -2 98 C0.47 96.52 0.47 96.52 3 95 C3.99 94.01 4.98 93.02 6 92 C6 89.03 6 86.06 6 83 C4.68 81.68 3.36 80.36 2 79 C-8.22 75.84 -18.4 72.73 -28.86 70.45 C-29.57 70.3 -30.27 70.15 -31 70 C-32.65 70 -34.3 70 -36 70 Z M-26 101 C-30.95 103.47 -30.95 103.47 -36 106 C-36 108.31 -36 110.62 -36 113 C-35.01 115.31 -34.02 117.62 -33 120 C-31.35 121.65 -29.7 123.3 -28 125 C-26.35 124.34 -24.7 123.68 -23 123 C-21.35 122.01 -19.7 121.02 -18 120 C-13.05 120 -8.1 120 -3 120 C-0.53 117.53 -0.53 117.53 2 115 C2 112.69 2 110.38 2 108 C0.35 107.01 -1.3 106.02 -3 105 C-11.41 103.02 -11.41 103.02 -20 101 C-21.98 101 -23.96 101 -26 101 Z " fill="#FDF5F6" transform="translate(119,21)"/>
<path d="M0 0 C5.28 0 10.56 0 16 0 C19.63 1.32 23.26 2.64 27 4 C29.64 6.31 32.28 8.62 35 11 C35.5 12.98 35.5 12.98 36 15 C34.44 14.77 32.88 14.54 31.31 14.32 C27.88 13.85 24.44 13.43 21 13 C8.62 18.45 8.62 18.45 -4 24 C-5.32 25.32 -6.64 26.64 -8 28 C-9.32 30.64 -10.64 33.28 -12 36 C-12 38.97 -12 41.94 -12 45 C-10.68 47.31 -9.36 49.62 -8 52 C-6.02 53.32 -4.04 54.64 -2 56 C-0.68 59.3 0.64 62.6 2 66 C6.3 71.1 6.3 71.1 10.88 75.94 C11.58 76.62 12.28 77.3 13 78 C13.99 80.97 14.98 83.94 16 87 C17.32 88.98 18.64 90.96 20 93 C21.66 94.34 23.33 95.68 25 97 C25.99 97.66 26.98 98.32 28 99 C28.66 101.97 29.32 104.94 30 108 C31.98 110.97 33.96 113.94 36 117 C37.65 117.99 39.3 118.98 41 120 C40.37 123.01 39.72 126.01 39 129 C38.37 131.01 37.71 133.02 37 135 C35.68 133.68 34.36 132.36 33 131 C32.49 130.16 31.97 129.32 31.45 128.45 C19.25 108.61 6.11 89.33 -7.35 70.33 C-9.08 67.89 -10.81 65.44 -12.53 62.99 C-15.35 58.99 -18.17 55 -21 51 C-22.98 47.04 -24.96 43.08 -27 39 C-27.33 37.68 -27.66 36.36 -28 35 C-28 32.69 -28 30.38 -28 28 C-26.02 22.55 -26.02 22.55 -24 17 C-21.69 14.03 -19.38 11.06 -17 8 C-14.03 6.02 -11.06 4.04 -8 2 C-5.36 1.34 -2.72 0.68 0 0 Z " fill="#D41230" transform="translate(48,31)"/>
<path d="M0 0 C2.97 0.33 5.94 0.66 9 1 C20.39 3.97 20.39 3.97 32 7 C34.31 7.99 36.62 8.98 39 10 C39.99 10.99 40.98 11.98 42 13 C42 15.97 42 18.94 42 22 C39.53 24.47 39.53 24.47 37 27 C36.01 27.33 35.02 27.66 34 28 C31.69 28 29.38 28 27 28 C23.04 27.01 19.08 26.02 15 25 C12.69 25 10.38 25 8 25 C4.04 26.98 0.08 28.96 -4 31 C-4.99 31.33 -5.98 31.66 -7 32 C-8.65 30.68 -10.3 29.36 -12 28 C-13.32 24.7 -14.64 21.4 -16 18 C-16 15.69 -16 13.38 -16 11 C-13.36 8.69 -10.72 6.38 -8 4 C-5.36 2.68 -2.72 1.36 0 0 Z " fill="#D3102E" transform="translate(83,91)"/>
<path d="M0 0 C3.96 0 7.92 0 12 0 C17.94 1.48 17.94 1.48 24 3 C27.3 4.98 30.6 6.96 34 9 C36.31 12.3 38.62 15.6 41 19 C41.99 21.64 42.98 24.28 44 27 C44 30.96 44 34.92 44 39 C43.01 41.97 43.01 41.97 42 45 C40.68 44.34 39.36 43.68 38 43 C36.46 41.48 34.91 39.96 33.38 38.44 C32.52 37.59 31.66 36.74 30.77 35.87 C27.71 32.7 24.86 29.34 22 26 C12.1 22.37 2.2 18.74 -8 15 C-10.31 15.33 -12.62 15.66 -15 16 C-17.31 16.99 -19.62 17.98 -22 19 C-21.34 17.68 -20.68 16.36 -20 15 C-17.69 12.36 -15.38 9.72 -13 7 C-9.7 5.02 -6.4 3.04 -3 1 C-2.01 0.67 -1.02 0.34 0 0 Z " fill="#D41330" transform="translate(119,27)"/>
<path d="M0 0 C3.17 1.07 3.17 1.07 6.35 2.15 C9.54 3.17 12.77 4.08 16 5 C21.28 5 26.56 5 32 5 C33.65 4.67 35.3 4.34 37 4 C42.94 9.44 42.94 9.44 49 15 C49.99 16.98 49.99 16.98 51 19 C50.5 21.47 50.5 21.47 50 24 C46.7 23.67 43.4 23.34 40 23 C38.14 22.48 38.14 22.48 36.24 21.94 C34.6 21.48 32.95 21.02 31.31 20.56 C30.5 20.33 29.68 20.1 28.84 19.87 C25.54 18.94 22.27 18.06 18.92 17.34 C18.29 17.23 17.65 17.12 17 17 C14.69 17 12.38 17 10 17 C2.08 20.96 2.08 20.96 -6 25 C-6.66 25 -7.32 25 -8 25 C-8.99 27.47 -8.99 27.47 -10 30 C-12.48 29.01 -12.48 29.01 -15 28 C-16.32 26.35 -17.64 24.7 -19 23 C-19.33 22.34 -19.66 21.68 -20 21 C-20 18.69 -20 16.38 -20 14 C-18.35 12.35 -16.7 10.7 -15 9 C-10.05 6.03 -5.1 3.06 0 0 Z " fill="#D3122F" transform="translate(72,69)"/>
<path d="M0 0 C3.03 0.26 6 0.57 9 1 C13.68 1.93 18.34 2.95 23 4 C25.47 5.48 25.47 5.48 28 7 C28 9.31 28 11.62 28 14 C26.35 15.65 24.7 17.3 23 19 C18.05 19 13.1 19 8 19 C5.36 20.65 2.72 22.3 0 24 C-2.47 23.01 -2.47 23.01 -5 22 C-6.32 20.02 -7.64 18.04 -9 16 C-9.33 14.68 -9.66 13.36 -10 12 C-10 9.69 -10 7.38 -10 5 C-6.7 3.35 -3.4 1.7 0 0 Z " fill="#D41330" transform="translate(93,122)"/>
<path d="M0 0 C3.3 0.66 6.6 1.32 10 2 C10.66 2.66 11.32 3.32 12 4 C8.7 5.98 5.4 7.96 2 10 C1.67 11.98 1.34 13.96 1 16 C-5.27 19.3 -11.54 22.6 -18 26 C-19.98 28.97 -19.98 28.97 -22 32 C-23.65 30.68 -25.3 29.36 -27 28 C-27.33 27.34 -27.66 26.68 -28 26 C-28 23.36 -28 20.72 -28 18 C-26.68 16.02 -25.36 14.04 -24 12 C-22.02 10.68 -20.04 9.36 -18 8 C-12.06 5.36 -6.12 2.72 0 0 Z " fill="#D41431" transform="translate(70,49)"/>
<path d="M0 0 C2.64 0 5.28 0 8 0 C9.98 1.65 11.96 3.3 14 5 C14.33 5.66 14.66 6.32 15 7 C15 9.97 15 12.94 15 16 C13.35 17.98 11.7 19.96 10 22 C9.34 22.33 8.68 22.66 8 23 C5.36 23 2.72 23 0 23 C-1.98 21.68 -3.96 20.36 -6 19 C-6.66 17.35 -7.32 15.7 -8 14 C-8 12.02 -8 10.04 -8 8 C-6.02 5.69 -4.04 3.38 -2 1 C-1.34 0.67 -0.68 0.34 0 0 Z M0 3 C-1.32 3.99 -2.64 4.98 -4 6 C-4.33 8.64 -4.66 11.28 -5 14 C-4.01 15.65 -3.02 17.3 -2 19 C-1.01 19.66 -0.02 20.32 1 21 C4.47 20.5 4.47 20.5 8 20 C9.32 18.68 10.64 17.36 12 16 C12 13.03 12 10.06 12 7 C10.68 5.68 9.36 4.36 8 3 C5.36 3 2.72 3 0 3 Z " fill="#F9E2E6" transform="translate(104,155)"/>
<path d="M0 0 C2.64 0 5.28 0 8 0 C9.32 1.32 10.64 2.64 12 4 C12 6.97 12 9.94 12 13 C10.68 14.32 9.36 15.64 8 17 C5.69 17.33 3.38 17.66 1 18 C-0.65 16.68 -2.3 15.36 -4 14 C-4.33 11.36 -4.66 8.72 -5 6 C-4.01 4.35 -3.02 2.7 -2 1 C-1.34 0.67 -0.68 0.34 0 0 Z M-1 3 C-1 6.96 -1 10.92 -1 15 C-0.01 15 0.98 15 2 15 C2 13.35 2 11.7 2 10 C2.99 10.33 3.98 10.66 5 11 C5.33 11.99 5.66 12.98 6 14 C6.99 14 7.98 14 9 14 C8.67 12.02 8.34 10.04 8 8 C8 6.68 8 5.36 8 4 C7.67 3.67 7.34 3.34 7 3 C4.36 3 1.72 3 -1 3 Z " fill="#D6223D" transform="translate(104,158)"/>
<path d="M0 0 C2.64 0 5.28 0 8 0 C8.66 1.32 9.32 2.64 10 4 C10 6.33 10 8.67 10 11 C9.01 11 8.02 11 7 11 C6.67 10.01 6.34 9.02 6 8 C5.01 7.67 4.02 7.34 3 7 C3 8.65 3 10.3 3 12 C2.01 12 1.02 12 0 12 C0 8.04 0 4.08 0 0 Z " fill="#F5C8CF" transform="translate(103,161)"/>
</svg>
